<svg xmlns="http://www.w3.org/2000/svg" xmlns:xlink="http://www.w3.org/1999/xlink" width="500" zoomAndPan="magnify" viewBox="0 0 375 374.999991" height="500" preserveAspectRatio="xMidYMid meet" version="1.0"><defs><clipPath id="ef21e4bbb3"><path d="M 0 9.167969 L 365.832031 9.167969 L 365.832031 375 L 0 375 Z M 0 9.167969 " clip-rule="nonzero"/></clipPath><clipPath id="32af94f4f0"><path d="M 182.917969 9.167969 C 81.894531 9.167969 0 91.0625 0 192.082031 C 0 293.105469 81.894531 375 182.917969 375 C 283.9375 375 365.832031 293.105469 365.832031 192.082031 C 365.832031 91.0625 283.9375 9.167969 182.917969 9.167969 Z M 182.917969 9.167969 " clip-rule="nonzero"/></clipPath></defs><g clip-path="url(#ef21e4bbb3)"><g clip-path="url(#32af94f4f0)"><path fill="#fdfeff" d="M 0 9.167969 L 365.832031 9.167969 L 365.832031 375 L 0 375 Z M 0 9.167969 " fill-opacity="1" fill-rule="nonzero"/></g></g><path fill="#000000" d="M 208.328125 191.117188 C 207.578125 200.199219 205.234375 209.015625 202.089844 217.535156 L 202.324219 218.523438 L 202.066406 217.882812 C 195.324219 233.644531 184.265625 247.5 170.242188 257.375 C 163.832031 261.71875 156.929688 265.257812 149.730469 268.070312 C 125.296875 277 97.132812 274.472656 74.601562 261.496094 C 51.046875 247.90625 34.132812 223.222656 30.644531 196.160156 C 27.011719 170.617188 35.109375 143.679688 52.402344 124.511719 C 64.445312 110.773438 80.8125 101.269531 98.414062 96.660156 C 110.542969 94.414062 123.066406 93.503906 135.292969 95.882812 C 135.539062 90.8125 135.945312 85.746094 136.007812 80.675781 C 125.46875 80.378906 114.964844 79.367188 104.425781 78.988281 C 103.957031 83.945312 103.898438 88.941406 103.453125 93.898438 C 100.816406 95.019531 97.859375 95.15625 95.109375 95.980469 C 84.015625 97.882812 73.585938 102.691406 63.960938 108.429688 C 60.507812 104.421875 56.886719 100.570312 53.496094 96.511719 C 45.59375 103.628906 37.644531 110.699219 29.648438 117.707031 C 33.144531 121.886719 36.96875 125.8125 40.371094 130.089844 C 31.691406 140.859375 25.816406 153.757812 22.722656 167.191406 C 17.199219 167.058594 11.691406 166.734375 6.191406 166.230469 C 5.5625 176.875 4.8125 187.507812 4.378906 198.148438 C 9.902344 198.359375 15.414062 198.941406 20.945312 199.050781 C 22.734375 212.769531 27.355469 226.054688 34.554688 237.867188 C 30.300781 241.59375 26.136719 245.417969 21.859375 249.09375 C 28.996094 257.003906 36.070312 264.96875 43.070312 272.988281 C 47.289062 269.324219 51.328125 265.449219 55.644531 261.898438 C 63.164062 266.894531 70.679688 272.261719 79.296875 275.292969 C 83.574219 277.21875 88.085938 278.488281 92.597656 279.734375 C 92.253906 285.261719 92.042969 290.808594 91.515625 296.335938 C 102.140625 297.148438 112.777344 297.71875 123.425781 298.25 C 123.652344 292.746094 124.140625 287.257812 124.375 281.769531 C 134.46875 280.648438 144.34375 277.898438 153.648438 273.839844 C 156.976562 272.25 160.257812 270.535156 163.410156 268.609375 C 167.222656 272.496094 170.746094 276.640625 174.34375 280.75 C 178.707031 276.742188 183.105469 272.78125 187.582031 268.90625 C 191.070312 265.773438 194.535156 262.59375 198.144531 259.605469 C 194.78125 255.550781 191.269531 251.640625 187.730469 247.753906 C 193.917969 239.257812 199.796875 230.238281 202.941406 220.125 C 204.394531 216.882812 205.355469 213.453125 206.304688 210.035156 C 211.382812 210.296875 216.460938 210.515625 221.527344 210.949219 C 221.859375 206.742188 222.230469 202.523438 222.367188 198.304688 C 222.84375 191.9375 223.078125 185.550781 223.472656 179.171875 C 218.457031 178.816406 213.441406 178.445312 208.414062 178.226562 C 208.5625 182.519531 208.550781 186.8125 208.328125 191.117188 Z M 208.328125 191.117188 " fill-opacity="1" fill-rule="nonzero"/><path fill="#000000" d="M 84.074219 225.53125 C 74.628906 217.269531 67.816406 206.019531 65.039062 193.757812 C 61.082031 176.453125 65.261719 157.472656 76.429688 143.628906 C 85.886719 131.382812 100.332031 123.609375 115.539062 121.378906 C 96.078125 121.800781 77.132812 132.109375 65.988281 148.03125 C 56.089844 161.785156 52.144531 179.609375 55.179688 196.273438 C 57.929688 212.160156 67.023438 226.765625 79.964844 236.339844 C 93.699219 246.402344 111.683594 251.128906 128.457031 247.675781 C 136.75 246.972656 144.542969 243.308594 151.691406 239.214844 C 161.785156 232.882812 170.070312 223.71875 175.246094 212.976562 C 177.785156 207.609375 180.113281 201.949219 180.199219 195.917969 C 175.847656 214.101562 161.847656 229.125 144.625 235.992188 C 140.535156 237.660156 136.109375 238.25 131.957031 239.628906 C 114.925781 241.75 97.089844 236.867188 84.074219 225.53125 Z M 84.074219 225.53125 " fill-opacity="1" fill-rule="nonzero"/><path fill="#0000ff" d="M 268.59375 140.941406 C 280.859375 147.011719 291.160156 157.085938 296.867188 169.605469 C 306.0625 188.824219 303.699219 212.976562 290.863281 230.007812 C 281.5 242.996094 266.582031 251.78125 250.660156 253.59375 C 270.847656 253.851562 290.164062 242.148438 301.230469 225.554688 C 313.089844 207.914062 315.15625 184.273438 306.582031 164.832031 C 300.234375 149.722656 287.625 137.792969 272.695312 131.253906 L 272.191406 131.425781 C 250.695312 121.78125 224.082031 126.601562 206.433594 141.949219 C 195.722656 151.484375 187.398438 164.632812 185.738281 179.074219 C 190.238281 162.074219 202.699219 147.535156 218.769531 140.464844 C 234.425781 133.269531 253.011719 133.800781 268.59375 140.941406 Z M 268.59375 140.941406 " fill-opacity="1" fill-rule="nonzero"/><path fill="#0000ff" d="M 345.039062 176.132812 C 343.203125 162.566406 338.890625 149.207031 331.445312 137.648438 C 335.5 133.640625 339.988281 130.074219 344.105469 126.128906 C 337.003906 118.257812 329.980469 110.328125 322.980469 102.363281 C 318.589844 105.988281 314.5625 110.011719 310.148438 113.589844 C 305.734375 110.160156 301.113281 106.976562 296.179688 104.335938 C 289.003906 100.339844 281.179688 97.75 273.339844 95.445312 C 273.796875 89.917969 274.007812 84.378906 274.460938 78.867188 C 263.847656 78.289062 253.234375 77.582031 242.621094 77.027344 C 242.398438 82.519531 241.855469 87.992188 241.671875 93.496094 C 230.269531 94.828125 219.167969 98.121094 208.847656 103.140625 C 206.714844 104.335938 204.59375 105.53125 202.476562 106.765625 C 198.890625 102.707031 195.339844 98.621094 191.640625 94.664062 C 183.730469 101.730469 175.765625 108.734375 167.914062 115.867188 C 171.105469 119.816406 174.816406 123.328125 177.933594 127.339844 C 177.898438 128.792969 176.617188 129.828125 175.9375 131.027344 C 168.183594 141.140625 162.984375 153.007812 159.777344 165.292969 C 154.621094 164.96875 149.484375 164.625 144.34375 164.417969 C 143.875 175.050781 142.964844 185.65625 142.632812 196.300781 C 147.625 196.488281 152.601562 196.742188 157.582031 197.066406 C 156.933594 186.347656 158.410156 175.652344 161.195312 165.304688 C 168.222656 142.410156 184.738281 122.894531 205.878906 111.757812 C 224.464844 102.269531 246.359375 99.410156 266.695312 104.183594 C 278.847656 106.6875 289.894531 112.558594 300.214844 119.230469 L 300.175781 119.859375 C 319.332031 133.578125 332.136719 155.65625 335.355469 178.953125 C 338.214844 199.230469 333.902344 220.484375 323.152344 237.9375 C 311.34375 257.277344 292.027344 272.003906 270.074219 277.792969 C 257.257812 281.121094 243.757812 281.753906 230.71875 279.398438 C 230.457031 284.402344 230.160156 289.410156 229.917969 294.433594 C 240.480469 295.246094 251.054688 295.714844 261.640625 296.34375 C 261.9375 291.3125 262.335938 286.289062 262.417969 281.246094 C 265.980469 280.433594 269.566406 279.757812 273.167969 279.039062 C 283.214844 276.570312 292.78125 272.464844 301.65625 267.148438 C 305.882812 270.160156 308.804688 274.980469 312.515625 278.71875 C 320.527344 271.703125 328.441406 264.570312 336.414062 257.503906 C 332.828125 253.484375 329.214844 249.5 325.691406 245.441406 C 334.183594 234.410156 340.257812 221.585938 343.378906 208.003906 C 348.875 208.273438 354.363281 208.742188 359.871094 208.988281 C 360.410156 198.34375 361.300781 187.710938 361.621094 177.054688 C 356.082031 176.882812 350.546875 176.613281 345.039062 176.132812 Z M 345.039062 176.132812 " fill-opacity="1" fill-rule="nonzero"/></svg>